<svg width="390" height="298" viewBox="0 0 390 298" fill="none" xmlns="http://www.w3.org/2000/svg">
<path d="M376.598 0.108955H13.4024C6.00082 0.108955 0 6.11048 0 13.5147V283.628C0 291.032 6.00082 297.034 13.4024 297.034H376.597C383.999 297.034 389.999 291.032 389.999 283.628V13.5147C390 6.11048 383.999 0.108955 376.598 0.108955Z" fill="#1685FB"/>
<path d="M389.998 283.625V13.517C389.998 6.10743 383.995 0.110477 376.595 0.110477H355.016C362.416 0.110477 368.419 6.10743 368.419 13.517V283.624C368.419 291.034 362.416 297.031 355.016 297.031H376.595C383.995 297.031 389.998 291.035 389.998 283.625Z" fill="#4C60E1"/>
<path d="M390 58.1623V13.517C390 6.10743 383.997 0.110477 376.597 0.110477H13.4032C6.00311 0.111239 0 6.10819 0 13.517V58.1623H390Z" fill="#E3F4FF"/>
<path d="M389.998 58.1623V13.517C389.998 6.10743 383.995 0.110477 376.595 0.110477H355.016C362.416 0.110477 368.419 6.10743 368.419 13.517V58.1623H389.998Z" fill="#BDDFF4"/>
<path d="M75.416 34.9676H75.3421C72.0918 34.9676 69.457 32.3322 69.457 29.0811C69.457 25.8301 72.0918 23.1947 75.3421 23.1947C78.5923 23.1947 81.2644 25.8301 81.2644 29.0811C81.2644 32.3322 78.6662 34.9676 75.416 34.9676Z" fill="#54DDAC"/>
<path d="M56.1299 35.024C52.9079 35.024 50.2799 32.429 50.2464 29.1985C50.2122 25.9474 52.8195 23.2846 56.0698 23.2503C59.285 23.2069 62.0188 25.824 62.0531 29.0751C62.0873 32.3269 59.5165 34.989 56.2663 35.0232L56.1924 35.024C56.1718 35.024 56.1505 35.024 56.1299 35.024Z" fill="#FDC142"/>
<path d="M36.9229 35.0796C33.7008 35.0796 31.0721 32.4846 31.0394 29.2541C31.0059 26.0023 33.6132 23.3394 36.8635 23.3059C36.884 23.3059 36.9054 23.3059 36.9252 23.3059C40.148 23.3059 42.8125 25.901 42.846 29.1314C42.8795 32.3825 40.3095 35.0453 37.0585 35.0789L36.9846 35.0796C36.9648 35.0796 36.9435 35.0796 36.9229 35.0796Z" fill="#FC3E81"/>
<path d="M131.661 35.0796H111.237C107.986 35.0796 105.352 32.4442 105.352 29.1931C105.352 25.9421 107.986 23.3067 111.237 23.3067H131.661C134.911 23.3067 137.546 25.9421 137.546 29.1931C137.546 32.4442 134.911 35.0796 131.661 35.0796Z" fill="#BDDFF4"/>
</svg>
